<?xml version="1.0" encoding="UTF-8" standalone="no"?>
<svg xmlns="http://www.w3.org/2000/svg" width="229.000000pt" height="229.000000pt" viewBox="0 0 229.000000 229.000000" preserveAspectRatio="xMidYMid meet" version="1.2" baseProfile="tiny-ps">
  <title>AS213151</title>
  <g transform="translate(0.000000,229.000000) scale(0.100000,-0.100000)" fill="#000000" stroke="none">
    <path d="M1505 1772 c-37 -23 -50 -39 -62 -77 -8 -25 -17 -31 -74 -45 -126 -32 -239 -84 -362 -165 -47 -32 -48 -32 -90 -17 -39 14 -45 14 -89 -6 -54 -24 -88 -70 -88 -120 0 -27 -6 -36 -31 -50 -53 -29 -181 -122 -247 -180 -69 -61 -140 -153 -178 -232 -18 -38 -29 -50 -47 -50 -33 0 -94 -54 -107 -96 -25 -75 5 -144 77 -176 59 -26 110 -17 164 28 46 38 88 49 165 41 76 -8 143 -48 229 -138 69 -73 73 -80 73 -123 0 -26 8 -58 18 -76 20 -34 86 -70 127 -70 63 0 123 43 133 95 5 29 14 37 82 68 121 56 190 71 327 71 89 -1 143 -6 212 -23 84 -21 94 -25 112 -57 41 -68 120 -92 191 -56 43 21 80 75 80 116 -1 46 -34 111 -68 131 l-29 18 -6 126 c-16 340 -109 621 -269 813 -37 44 -38 49 -33 100 10 93 -41 157 -132 165 -35 3 -56 -1 -78 -15z m-29 -222 c32 -38 86 -53 138 -39 43 12 38 16 110 -91 120 -179 184 -382 211 -675 l7 -70 -27 52 c-14 28 -44 70 -65 92 -38 39 -39 41 -25 68 49 93 -30 209 -135 200 -25 -3 -54 -8 -66 -11 -17 -6 -26 1 -51 42 -56 91 -195 180 -313 202 -30 6 -95 13 -144 18 -78 6 -90 10 -97 29 -7 19 0 27 54 62 80 52 196 105 283 130 91 26 91 26 120 -9z m-226 -312 c75 -14 158 -58 212 -111 48 -46 105 -134 94 -144 -3 -4 -66 -1 -139 6 -72 7 -184 15 -247 18 l-115 6 -50 96 -51 96 23 22 c12 12 35 24 50 26 38 7 155 -1 223 -15z m-450 -23 c7 -8 26 -19 43 -23 24 -6 38 -23 73 -87 24 -44 44 -85 44 -91 0 -7 -30 -14 -72 -18 -165 -15 -345 -83 -451 -170 -56 -45 -60 -47 -77 -31 -19 17 -19 19 5 65 35 68 114 160 193 224 63 51 208 146 223 146 4 0 12 -7 19 -15z m217 -342 c10 -33 17 -93 17 -139 1 -73 -2 -87 -34 -150 -28 -55 -43 -73 -74 -87 l-38 -18 -66 68 c-116 119 -209 165 -335 164 l-62 0 25 20 c139 110 277 166 463 188 40 5 75 9 79 10 4 0 15 -25 25 -56z m425 33 c115 -13 117 -14 148 -50 34 -38 88 -59 128 -49 51 12 145 -115 157 -213 5 -42 2 -53 -18 -77 l-24 -29 -84 21 c-210 52 -422 32 -594 -56 l-39 -21 -37 31 -36 30 29 56 c48 93 55 225 18 350 l-9 34 122 -7 c67 -3 175 -12 239 -20z"></path>
  </g>
</svg>
